<svg xmlns:xlink="http://www.w3.org/1999/xlink" data-name="logo" xmlns="http://www.w3.org/2000/svg" fill="currentColor" viewBox="0 0 733.57 126.09" width="733.57"  height="126.09" >
    <path fill-rule="evenodd" clip-rule="evenodd" d="M174.942 81.6041H191.612C199.677 81.6041 201.007 83.2173 205.953 91.6667L215.306 113.979C219.339 120.857 223.108 126.094 233.419 126.094H247.552L232.776 91.3444C228.743 84.0419 221.006 80.4573 214.522 79.9909C237.807 71.5236 244.305 55.1631 244.305 39.8361C244.305 20.1359 221.2 0 191.407 0H141.305L142.929 4.32101C155.691 4.32101 173.501 4.10136 186.179 4.10136C207.92 4.10136 219.035 19.7002 219.035 40.036C219.035 57.6549 211.587 79.3122 195.208 79.3122L175.048 79.3986L175.945 81.5591L174.946 81.6059L174.942 81.6041Z" fill="#C4955D"></path>
    <path fill-rule="evenodd" clip-rule="evenodd" d="M91.0495 99.5615L58.9235 24.3039C48.9285 1.11804 41.7603 0.288048 21.7703 0.178223H21.7667L31.4638 22.5035L0 125.651H4.37201L36.4891 34.5663L69.6274 112.814C73.5812 122.348 77.9963 125.556 88.4256 125.556H102.261L94.0988 106.945L119.584 34.388L152.787 111.887C156.915 121.889 160.808 125.515 171.237 125.515L185.452 125.671L142.198 24.4875C138.169 15.1937 134.572 0.430282 121.32 0.217832" fill="#C4955D"></path>
    <path fill-rule="evenodd" clip-rule="evenodd" d="M492.529 15.4169C488.082 5.03567 483.222 1.43483 472.105 1.18457H459.915L467.049 18.3624L434.385 125.668H438.872C452.153 86.9585 459.332 67.3339 472.254 30.6053C496.445 88.9695 488.184 68.0882 492.894 79.2166L488.439 79.2383H465.416L465.981 81.2871H481.016C488.27 81.2871 489.457 82.7239 493.922 90.2893L508.016 115.076C508.336 115.632 508.675 116.169 509.034 116.685C512.914 123.064 517.814 125.554 526.744 125.554H538.934L492.529 15.4169Z" fill="#C4955D"></path>
    <path fill-rule="evenodd" clip-rule="evenodd" d="M419.07 94.1494C419.07 56.1461 339.548 45.5489 339.009 18.8342C338.792 8.08207 352.823 2.37834 365.11 2.37834C380.877 2.37834 407.653 9.21634 417.619 26.7723V10.7287C406.75 4.37501 383.196 0.178223 367.429 0.178223C345.648 0.178223 322.492 9.18033 322.492 31.583C322.492 66.2879 400.553 77.04 400.553 105.146C400.553 118.302 386.676 123.354 374.861 123.354C355.657 123.354 332.717 115.776 322.535 99.3203V115.004C333.663 121.357 352.865 125.554 371.381 125.554C396.17 125.554 419.068 116.552 419.068 94.1494H419.07Z" fill="#C4955D"></path>
    <path d="M281.431 125.914C288.196 125.914 293.677 120.414 293.677 113.63C293.677 106.846 288.194 101.346 281.431 101.346C274.669 101.346 269.186 106.846 269.186 113.63C269.186 120.414 274.669 125.914 281.431 125.914Z" fill="#C4955D"></path>
    <path fill-rule="evenodd" clip-rule="evenodd" d="M639.167 99.5615L607.041 24.3039C597.046 1.11804 589.877 0.288048 569.888 0.178223H569.884L579.581 22.5035L548.117 125.651H552.489L584.606 34.5663L617.745 112.814C621.698 122.348 626.113 125.556 636.543 125.556H650.379L642.216 106.945L667.701 34.388L700.904 111.887C705.032 121.889 708.925 125.515 719.354 125.515L733.569 125.671L690.315 24.4875C686.286 15.1937 682.689 0.430282 669.437 0.217832" fill="#C4955D"></path>
</svg>